<?xml version="1.0" encoding="utf-8"?>
<!-- Generator: Adobe Illustrator 16.0.0, SVG Export Plug-In . SVG Version: 6.00 Build 0)  -->
<!DOCTYPE svg PUBLIC "-//W3C//DTD SVG 1.1//EN" "http://www.w3.org/Graphics/SVG/1.1/DTD/svg11.dtd">
<svg version="1.1" id="Слой_1" xmlns="http://www.w3.org/2000/svg" xmlns:xlink="http://www.w3.org/1999/xlink" x="0px" y="0px"
	 width="50px" height="40px" viewBox="0 0 48 40" enable-background="new 0 0 48 40" xml:space="preserve">
<g>
	<path fill="#fff" d="M43,34H5c-2.756,0-5-2.242-5-5V5.002C0,2.244,2.244,0,5,0h38c2.758,0,5,2.244,5,5.002V29
		C48,31.758,45.758,34,43,34z M5,2C3.346,2,2,3.348,2,5.002V29c0,1.654,1.346,3,3,3h38c1.654,0,3-1.346,3-3V5.002
		C46,3.348,44.654,2,43,2H5z"/>
	<path fill="#fff" d="M47,28H2c-0.553,0-1-0.446-1-1c0-0.553,0.447-1,1-1h45c0.553,0,1,0.447,1,1C48,27.554,47.553,28,47,28z"/>
	<path fill="#fff" d="M21,39c-0.553,0-1-0.447-1-1v-4c0-0.553,0.447-1,1-1s1,0.447,1,1v4C22,38.553,21.553,39,21,39z"/>
	<path fill="#fff" d="M31,40H17c-0.553,0-1-0.447-1-1s0.447-1,1-1h14c0.553,0,1,0.447,1,1S31.553,40,31,40z"/>
</g>
</svg>
