<?xml version="1.0" encoding="utf-8"?>
<!-- Generator: Adobe Illustrator 16.0.0, SVG Export Plug-In . SVG Version: 6.00 Build 0)  -->
<!DOCTYPE svg PUBLIC "-//W3C//DTD SVG 1.1//EN" "http://www.w3.org/Graphics/SVG/1.1/DTD/svg11.dtd">
<svg version="1.1" id="Слой_1" xmlns="http://www.w3.org/2000/svg" xmlns:xlink="http://www.w3.org/1999/xlink" x="0px" y="0px"
	 width="38px" height="38px" viewBox="0 0 48 48" enable-background="new 0 0 48 48" xml:space="preserve">
<g>
	<path fill="#fff" d="M6,48c-3.309,0-6-2.691-6-6V9.51C0,7.206,2.164,6,4.303,6H11c0.553,0,1,0.448,1,1v35
		C12,45.309,9.309,48,6,48z M4.303,8C3.506,8,2,8.315,2,9.51V42c0,2.206,1.794,4,4,4s4-1.794,4-4V8H4.303z"/>
	<path fill="#fff" d="M26,16H16c-0.553,0-1-0.448-1-1s0.447-1,1-1h10c0.553,0,1,0.448,1,1S26.553,16,26,16z"/>
	<path fill="#fff" d="M26,10H16c-0.553,0-1-0.448-1-1s0.447-1,1-1h10c0.553,0,1,0.448,1,1S26.553,10,26,10z"/>
	<path fill="#fff" d="M42,10H32c-0.553,0-1-0.448-1-1s0.447-1,1-1h10c0.553,0,1,0.448,1,1S42.553,10,42,10z"/>
	<path fill="#fff" d="M26,22H16c-0.553,0-1-0.448-1-1s0.447-1,1-1h10c0.553,0,1,0.448,1,1S26.553,22,26,22z"/>
	<path fill="#fff" d="M26,28H16c-0.553,0-1-0.448-1-1s0.447-1,1-1h10c0.553,0,1,0.448,1,1S26.553,28,26,28z"/>
	<path fill="#fff" d="M43,28H31c-0.553,0-1-0.448-1-1V15c0-0.552,0.447-1,1-1h12c0.553,0,1,0.448,1,1v12
		C44,27.552,43.553,28,43,28z M32,26h10V16H32V26z"/>
	<path fill="#fff" d="M26,34H16c-0.553,0-1-0.448-1-1s0.447-1,1-1h10c0.553,0,1,0.448,1,1S26.553,34,26,34z"/>
	<path fill="#fff" d="M42,34H32c-0.553,0-1-0.448-1-1s0.447-1,1-1h10c0.553,0,1,0.448,1,1S42.553,34,42,34z"/>
	<path fill="#fff" d="M26,40H16c-0.553,0-1-0.448-1-1s0.447-1,1-1h10c0.553,0,1,0.448,1,1S26.553,40,26,40z"/>
	<path fill="#fff" d="M42,40H32c-0.553,0-1-0.448-1-1s0.447-1,1-1h10c0.553,0,1,0.448,1,1S42.553,40,42,40z"/>
	<path fill="#fff" d="M44.305,48H6c-0.553,0-1-0.448-1-1s0.447-1,1-1h38.305c1,0,1.695-1.311,1.695-2.488V3.51
		C46,2.807,45.809,2,44.305,2H14.303C13.377,2,12,2.402,12,3.51V42c0,0.552-0.447,1-1,1s-1-0.448-1-1V3.51
		C10,1.206,12.164,0,14.303,0h30.001C46.584,0,48,1.345,48,3.51v40.002C48,45.67,46.587,48,44.305,48z"/>
</g>
</svg>
