<?xml version="1.0" encoding="utf-8"?>
<!-- Generator: Adobe Illustrator 16.0.0, SVG Export Plug-In . SVG Version: 6.00 Build 0)  -->
<!DOCTYPE svg PUBLIC "-//W3C//DTD SVG 1.1//EN" "http://www.w3.org/Graphics/SVG/1.1/DTD/svg11.dtd">
<svg version="1.1" id="Icons" xmlns="http://www.w3.org/2000/svg" xmlns:xlink="http://www.w3.org/1999/xlink" x="0px" y="0px"
	 width="48px" height="34px" viewBox="0 0 48 34" enable-background="new 0 0 48 34" xml:space="preserve">
<g>
	<path fill="#003951" d="M33.619,8.144c-2.708,0-4.91,2.203-4.91,4.911c0,2.705,2.203,4.906,4.91,4.906s4.91-2.201,4.91-4.906
		C38.529,10.347,36.327,8.144,33.619,8.144z M33.619,15.961c-1.604,0-2.91-1.304-2.91-2.906c0-1.605,1.306-2.911,2.91-2.911
		s2.91,1.306,2.91,2.911C36.529,14.657,35.224,15.961,33.619,15.961z"/>
	<path fill="#003951" d="M33,20c-0.552,0-1,0.447-1,1v2c0,0.553,0.448,1,1,1s1-0.447,1-1v-2C34,20.447,33.552,20,33,20z"/>
	<path fill="#003951" d="M33,7c0.552,0,1-0.447,1-1V4c0-0.553-0.448-1-1-1s-1,0.447-1,1v2C32,6.553,32.448,7,33,7z"/>
	<path fill="#003951" d="M43,12h-2c-0.552,0-1,0.447-1,1s0.448,1,1,1h2c0.552,0,1-0.447,1-1S43.552,12,43,12z"/>
	<path fill="#003951" d="M28,13c0-0.553-0.448-1-1-1h-2c-0.552,0-1,0.447-1,1s0.448,1,1,1h2C27.552,14,28,13.553,28,13z"/>
	<path fill="#003951" d="M39.669,18.145c-0.39-0.391-1.024-0.391-1.414,0s-0.39,1.024,0.001,1.414l1.729,1.727
		c0.195,0.195,0.451,0.293,0.707,0.293c0.256,0,0.512-0.098,0.708-0.293c0.39-0.391,0.39-1.024-0.001-1.414L39.669,18.145z"/>
	<path fill="#003951" d="M27.113,8.418c0.195,0.195,0.451,0.293,0.708,0.293c0.256,0,0.511-0.098,0.707-0.292
		c0.391-0.391,0.391-1.023,0.001-1.415l-1.273-1.275c-0.39-0.391-1.023-0.39-1.414-0.001c-0.391,0.391-0.391,1.023-0.001,1.415
		L27.113,8.418z"/>
	<path fill="#003951" d="M39.096,8.391c0.256,0,0.513-0.098,0.708-0.294l0.953-0.955c0.39-0.391,0.389-1.023-0.001-1.414
		c-0.391-0.389-1.024-0.391-1.415,0.002l-0.953,0.955c-0.39,0.391-0.389,1.023,0.001,1.414C38.584,8.293,38.84,8.391,39.096,8.391z"
		/>
	<path fill="#003951" d="M27.248,17.82l-1.408,1.408c-0.391,0.391-0.391,1.023,0,1.414c0.195,0.195,0.451,0.293,0.707,0.293
		s0.512-0.098,0.707-0.293l1.408-1.408c0.391-0.391,0.391-1.023,0-1.414S27.639,17.43,27.248,17.82z"/>
	<path fill="#003951" d="M44.445,0H3.555C1.595,0,0,1.595,0,3.555v26.891C0,32.405,1.595,34,3.555,34h40.891
		C46.405,34,48,32.405,48,30.445V3.555C48,1.595,46.405,0,44.445,0z M6.309,16.384c1.324-0.536,2.768-0.808,4.29-0.808
		c4.665,0,8.958,2.503,11,6.321L2,30.119v-10.68C3.141,18.138,4.587,17.081,6.309,16.384z M2.967,31.883l7.287-3.058L11.524,32
		H3.555C3.347,32,3.148,31.957,2.967,31.883z M46,30.445C46,31.303,45.303,32,44.445,32H13.676l-1.579-3.948l11.241-4.716
		c0.245-0.103,0.438-0.298,0.539-0.543c0.1-0.246,0.099-0.521-0.003-0.766c-2.121-5.056-7.456-8.451-13.274-8.451
		c-1.434,0-2.808,0.218-4.106,0.629l-0.411-0.979c-0.214-0.509-0.799-0.753-1.309-0.535c-0.509,0.213-0.749,0.799-0.536,1.309
		l0.402,0.958C3.68,15.43,2.792,15.989,2,16.643V3.555C2,2.697,2.697,2,3.555,2h40.891C45.303,2,46,2.697,46,3.555V30.445z"/>
</g>
</svg>
