<?xml version="1.0" encoding="utf-8"?>
<!-- Generator: Adobe Illustrator 16.0.0, SVG Export Plug-In . SVG Version: 6.00 Build 0)  -->
<!DOCTYPE svg PUBLIC "-//W3C//DTD SVG 1.1//EN" "http://www.w3.org/Graphics/SVG/1.1/DTD/svg11.dtd">
<svg version="1.1" id="Слой_1" xmlns="http://www.w3.org/2000/svg" xmlns:xlink="http://www.w3.org/1999/xlink" x="0px" y="0px"
	 width="48.001px" height="34.001px" viewBox="0 0 48.001 34.001" enable-background="new 0 0 48.001 34.001" xml:space="preserve">
<g>
	<path fill="#FFFFFF" d="M33.62,8.144c-2.707,0-4.91,2.203-4.91,4.911c0,2.705,2.203,4.906,4.91,4.906s4.91-2.201,4.91-4.906
		C38.53,10.347,36.327,8.144,33.62,8.144z M33.62,15.961c-1.604,0-2.91-1.304-2.91-2.906c0-1.605,1.306-2.911,2.91-2.911
		c1.604,0,2.91,1.306,2.91,2.911C36.53,14.657,35.225,15.961,33.62,15.961z"/>
	<path fill="#FFFFFF" d="M33.001,20c-0.553,0-1,0.446-1,1v2c0,0.553,0.447,1,1,1s1-0.447,1-1v-2C34.001,20.446,33.554,20,33.001,20z
		"/>
	<path fill="#FFFFFF" d="M33.001,7c0.553,0,1-0.447,1-1V4c0-0.553-0.447-1-1-1s-1,0.447-1,1v2C32.001,6.553,32.448,7,33.001,7z"/>
	<path fill="#FFFFFF" d="M43.001,12h-2c-0.553,0-1,0.447-1,1c0,0.553,0.447,1,1,1h2c0.553,0,1-0.447,1-1
		C44.001,12.447,43.554,12,43.001,12z"/>
	<path fill="#FFFFFF" d="M28.001,13c0-0.553-0.447-1-1-1h-2c-0.553,0-1,0.447-1,1c0,0.553,0.447,1,1,1h2
		C27.554,14,28.001,13.553,28.001,13z"/>
	<path fill="#FFFFFF" d="M39.671,18.146c-0.391-0.392-1.023-0.392-1.414,0c-0.391,0.391-0.391,1.023,0,1.413l1.729,1.728
		c0.194,0.195,0.45,0.293,0.707,0.293c0.256,0,0.512-0.098,0.707-0.293c0.391-0.391,0.391-1.024,0-1.414L39.671,18.146z"/>
	<path fill="#FFFFFF" d="M27.114,8.418c0.194,0.195,0.451,0.293,0.707,0.293s0.512-0.098,0.707-0.292
		c0.391-0.391,0.391-1.023,0-1.415l-1.273-1.275c-0.39-0.391-1.021-0.39-1.414-0.001c-0.391,0.391-0.391,1.023,0,1.415L27.114,8.418
		z"/>
	<path fill="#FFFFFF" d="M39.097,8.391c0.256,0,0.514-0.098,0.708-0.294l0.953-0.955c0.391-0.391,0.391-1.023-0.001-1.414
		c-0.392-0.389-1.024-0.391-1.415,0.002l-0.953,0.955c-0.39,0.391-0.39,1.023,0.001,1.414C38.585,8.293,38.841,8.391,39.097,8.391z"
		/>
	<path fill="#FFFFFF" d="M27.249,17.819l-1.408,1.408c-0.391,0.392-0.391,1.023,0,1.414c0.195,0.195,0.451,0.293,0.707,0.293
		s0.512-0.098,0.707-0.293l1.408-1.408c0.391-0.391,0.391-1.022,0-1.414C28.272,17.429,27.64,17.43,27.249,17.819z"/>
	<path fill="#FFFFFF" d="M44.446,0H3.555C1.595,0,0,1.595,0,3.555v26.892c0,1.959,1.595,3.555,3.555,3.555h40.891
		c1.96,0,3.555-1.596,3.555-3.555V3.555C48.001,1.595,46.406,0,44.446,0z M6.31,16.384c1.324-0.536,2.768-0.808,4.291-0.808
		c4.664,0,8.957,2.503,10.999,6.322L2.001,30.118v-10.68C3.142,18.138,4.589,17.081,6.31,16.384z M2.968,31.883l7.287-3.058
		L11.525,32H3.556C3.348,32,3.149,31.957,2.968,31.883z M46.001,30.444c0,0.857-0.697,1.556-1.555,1.556H13.676l-1.578-3.948
		l11.24-4.716c0.244-0.103,0.438-0.298,0.539-0.543c0.1-0.246,0.1-0.521-0.004-0.767c-2.121-5.056-7.455-8.451-13.273-8.451
		c-1.434,0-2.809,0.218-4.106,0.629l-0.411-0.979c-0.213-0.509-0.799-0.753-1.309-0.535C4.264,12.904,4.025,13.49,4.239,14
		l0.401,0.958C3.68,15.431,2.793,15.99,2,16.644V3.556c0-0.857,0.697-1.555,1.555-1.555h40.891c0.856,0,1.555,0.697,1.555,1.555
		V30.444L46.001,30.444z"/>
</g>
</svg>
