<?xml version="1.0" encoding="utf-8"?>
<!-- Generator: Adobe Illustrator 16.0.0, SVG Export Plug-In . SVG Version: 6.00 Build 0)  -->
<!DOCTYPE svg PUBLIC "-//W3C//DTD SVG 1.1//EN" "http://www.w3.org/Graphics/SVG/1.1/DTD/svg11.dtd">
<svg version="1.1" id="Слой_1" xmlns="http://www.w3.org/2000/svg" xmlns:xlink="http://www.w3.org/1999/xlink" x="0px" y="0px"
	 width="48px" height="48px" viewBox="0 0 48 48" enable-background="new 0 0 48 48" xml:space="preserve">
<g>
	<g>
		<path fill="#656F77" d="M11,43.998c-0.283,0-0.561-0.119-0.76-0.35c-0.359-0.42-0.311-1.051,0.107-1.41
			c1.459-1.248,3.055-1.256,5.098-1.24h2.053l2.273-3.363c0.309-0.457,0.93-0.578,1.389-0.269c0.457,0.309,0.578,0.931,0.268,1.388
			l-2.568,3.805c-0.188,0.274-0.496,0.439-0.828,0.439h-2.588c-1.951-0.021-2.938,0.027-3.793,0.76
			C11.461,43.919,11.23,43.998,11,43.998z"/>
		<path fill="#656F77" d="M36.999,43.998c-0.25,0-0.498-0.092-0.691-0.275c-0.754-0.722-1.5-0.744-3.268-0.729l-2.965,0.004
			c-0.328,0-0.635-0.161-0.822-0.432l-2.631-3.803c-0.314-0.455-0.201-1.078,0.254-1.393c0.453-0.314,1.078-0.201,1.391,0.253
			l2.334,3.373l2.424-0.004c1.842-0.021,3.293-0.03,4.666,1.28c0.398,0.382,0.412,1.015,0.031,1.414
			C37.524,43.895,37.262,43.998,36.999,43.998z"/>
		<path fill="#656F77" d="M23.99,38.934c-4.713,0-8.762-5.93-8.875-10.881c-2.105-4.993-0.686-9.5-0.322-10.493
			c0.039-3.024,1.041-5.78,7.424-5.858c1.777-1.057,3.506-1.592,5.143-1.592c2.115,0,3.977,0.937,5.104,2.568
			c1.033,1.496,1.314,3.38,0.773,5.102c0.438,1.627,1.932,7.905-0.377,10.491C32.633,33.178,28.635,38.934,23.99,38.934z
			 M27.36,12.109c-1.334,0-2.791,0.484-4.333,1.439c-0.158,0.099-0.342,0.15-0.527,0.15c-5.707,0-5.707,2.059-5.707,4.049
			c0,0.132-0.025,0.263-0.076,0.385c-0.018,0.042-1.799,4.497,0.312,9.306c0.055,0.127,0.084,0.264,0.084,0.401
			c0,4.419,3.535,9.095,6.877,9.095c3.342,0,6.877-4.676,6.877-9.095c0-0.298,0.133-0.58,0.363-0.771
			c1.594-1.319,0.686-6.662-0.002-9.043c-0.062-0.208-0.053-0.43,0.023-0.633c0.451-1.191,0.289-2.529-0.436-3.58
			C30.057,12.715,28.831,12.109,27.36,12.109z"/>
	</g>
	<path fill="#656F77" d="M24,48C10.766,48,0,37.232,0,24C0,10.767,10.766,0,24,0c13.234,0,24,10.767,24,24
		C48,37.232,37.235,48,24,48z M24,2C11.869,2,2,11.869,2,24s9.869,22,22,22c12.131,0,22-9.869,22-22S36.131,2,24,2z"/>
</g>
</svg>
