<?xml version="1.0" encoding="utf-8"?>
<!-- Generator: Adobe Illustrator 16.0.0, SVG Export Plug-In . SVG Version: 6.00 Build 0)  -->
<!DOCTYPE svg PUBLIC "-//W3C//DTD SVG 1.1//EN" "http://www.w3.org/Graphics/SVG/1.1/DTD/svg11.dtd">
<svg version="1.1" id="Слой_1" xmlns="http://www.w3.org/2000/svg" xmlns:xlink="http://www.w3.org/1999/xlink" x="0px" y="0px"
	 width="36px" height="38px" viewBox="0 0 36 48" enable-background="new 0 0 36 48" xml:space="preserve">
<g>
	<path fill="#fff" d="M24.633,22H12.367c-0.424,0-0.768-0.446-0.768-1c0-0.553,0.344-1,0.768-1h12.266c0.424,0,0.77,0.447,0.77,1
		C25.403,21.554,25.057,22,24.633,22z"/>
	<path fill="#fff" d="M24.633,40H12.367c-0.424,0-0.768-0.447-0.768-1s0.344-1,0.768-1h12.266c0.424,0,0.77,0.447,0.77,1
		S25.057,40,24.633,40z"/>
	<path fill="#fff" d="M29.235,28H7.766C7.342,28,7,27.553,7,27s0.342-1,0.766-1h21.469C29.659,26,30,26.448,30,27
		S29.659,28,29.235,28z"/>
	<path fill="#fff" d="M29.235,34H7.766C7.342,34,7,33.553,7,33s0.342-1,0.766-1h21.469C29.659,32,30,32.448,30,33
		S29.659,34,29.235,34z"/>
	<g>
		<g>
			<path fill="#fff" d="M35,48H1c-0.553,0-1-0.447-1-1v-35.37c0-0.26,0.102-0.512,0.285-0.696L10.643,0.304
				C10.832,0.11,11.09,0,11.359,0H35c0.553,0,1,0.447,1,1v46C36,47.553,35.553,48,35,48s-1-0.447-1-1V2H11.781L2,12.037V46h33
				c0.553,0,1,0.447,1,1S35.553,48,35,48z"/>
			<path fill="#fff" d="M12,14H2c-0.553,0-1-0.446-1-1c0-0.553,0.447-1,1-1h9V1c0-0.553,0.447-1,1-1s1,0.447,1,1v12
				C13,13.554,12.553,14,12,14z"/>
		</g>
	</g>
</g>
</svg>
