<?xml version="1.0" encoding="utf-8"?>
<!-- Generator: Adobe Illustrator 16.0.0, SVG Export Plug-In . SVG Version: 6.00 Build 0)  -->
<!DOCTYPE svg PUBLIC "-//W3C//DTD SVG 1.1//EN" "http://www.w3.org/Graphics/SVG/1.1/DTD/svg11.dtd">
<svg version="1.1" id="Слой_1" xmlns="http://www.w3.org/2000/svg" xmlns:xlink="http://www.w3.org/1999/xlink" x="0px" y="0px"
	 width="30px" height="50px" viewBox="0 0 36 58" enable-background="new 0 0 36 58" xml:space="preserve">
<g>
	<g>
		<g>
			<path fill="#fff" d="M14,48H1c-0.553,0-1-0.447-1-1v-35.37c0-0.26,0.102-0.512,0.284-0.696L10.643,0.304
				C10.831,0.11,11.089,0,11.359,0H35c0.553,0,1,0.447,1,1v28c0,0.553-0.447,1-1,1s-1-0.447-1-1V2H11.781L2,12.037V46h12
				c0.553,0,1,0.447,1,1S14.553,48,14,48z"/>
			<path fill="#fff" d="M12,14H2c-0.553,0-1-0.446-1-1c0-0.553,0.447-1,1-1h9V1c0-0.553,0.447-1,1-1s1,0.447,1,1v12
				C13,13.554,12.553,14,12,14z"/>
		</g>
	</g>
	<g>
		<path fill="#fff" d="M23,58c-0.553,0-1-0.447-1-1v-7c0-0.553,0.447-1,1-1s1,0.447,1,1v7C24,57.553,23.553,58,23,58z"/>
		<path fill="#fff" d="M24,51h-2c-0.318,0-0.617-0.15-0.807-0.408C17.792,45.963,15.996,40.225,16,34
			c0.004-6.75,2.063-13.976,6.12-21.476c0.351-0.646,1.409-0.646,1.76,0C27.943,20.037,30.002,27.262,30,34
			c-0.003,6.236-1.799,11.973-5.193,16.592C24.617,50.85,24.318,51,24,51z M22.514,49h0.975c2.951-4.203,4.51-9.377,4.513-15
			c0.002-5.902-1.679-12.232-5-18.838c-3.315,6.598-4.996,12.928-5,18.84C17.997,39.616,19.557,44.79,22.514,49z"/>
		<path fill="#fff" d="M21.999,44c-0.209,0-0.419-0.064-0.599-0.199l-4-3c-0.442-0.332-0.532-0.959-0.2-1.398
			c0.33-0.443,0.957-0.533,1.399-0.201l4,3c0.441,0.332,0.531,0.959,0.199,1.398C22.604,43.864,22.305,44,21.999,44z"/>
		<path fill="#fff" d="M21.999,38c-0.22,0-0.438-0.07-0.624-0.219l-5-4c-0.431-0.346-0.501-0.975-0.156-1.406
			c0.346-0.43,0.974-0.502,1.406-0.156l5,4c0.432,0.348,0.501,0.977,0.156,1.406C22.583,37.872,22.293,38,21.999,38z"/>
		<path fill="#fff" d="M22.999,33c-0.22,0-0.438-0.07-0.624-0.219l-5-4c-0.431-0.346-0.501-0.975-0.156-1.406
			c0.346-0.429,0.974-0.502,1.406-0.156l5,4c0.432,0.346,0.501,0.975,0.156,1.406C23.583,32.872,23.293,33,22.999,33z"/>
	</g>
</g>
</svg>
