<?xml version="1.0" encoding="utf-8"?>
<!-- Generator: Adobe Illustrator 16.0.0, SVG Export Plug-In . SVG Version: 6.00 Build 0)  -->
<!DOCTYPE svg PUBLIC "-//W3C//DTD SVG 1.1//EN" "http://www.w3.org/Graphics/SVG/1.1/DTD/svg11.dtd">
<svg version="1.1" id="Isolation_Mode" xmlns="http://www.w3.org/2000/svg" xmlns:xlink="http://www.w3.org/1999/xlink" x="0px"
	 y="0px" width="113px" height="91.83px" viewBox="0 0 113 91.83" enable-background="new 0 0 113 91.83" xml:space="preserve">
<path fill="#FF0000" d="M0,10.869c4.156,1.842,8.629,3.09,13.318,3.652C8.532,11.648,4.855,7.11,3.121,1.696
	c4.483,2.655,9.441,4.587,14.722,5.624C22.074,2.814,28.098,0,34.764,0c12.804,0,23.184,10.379,23.184,23.184
	c0,1.816-0.207,3.586-0.6,5.279c19.266-0.966,36.349-10.197,47.78-24.222c1.997,3.425,3.142,7.403,3.142,11.655
	c0,8.045-4.094,15.139-10.314,19.297c3.801-0.12,7.373-1.158,10.5-2.896c0.004,0.094,0.004,0.193,0.004,0.29
	c0,11.235-7.99,20.601-18.594,22.735c1.945,0.531,3.993,0.811,6.107,0.811c1.493,0,2.945-0.145,4.362-0.414
	c-2.952,9.207-11.511,15.91-21.656,16.098c7.935,6.221,17.932,9.924,28.794,9.924c1.869,0,3.714-0.11,5.527-0.324
	C102.742,87.992,90.555,91.83,77.465,91.83c-42.643,0-65.961-35.325-65.961-65.961c0-1.006,0.021-2.006,0.066-3
	C7.039,19.598,3.107,15.514,0,10.869"/>
</svg>
