<?xml version="1.0" encoding="utf-8"?>
<!-- Generator: Adobe Illustrator 16.0.0, SVG Export Plug-In . SVG Version: 6.00 Build 0)  -->
<!DOCTYPE svg PUBLIC "-//W3C//DTD SVG 1.1//EN" "http://www.w3.org/Graphics/SVG/1.1/DTD/svg11.dtd">
<svg version="1.1" id="Слой_1" xmlns="http://www.w3.org/2000/svg" xmlns:xlink="http://www.w3.org/1999/xlink" x="0px" y="0px"
	 width="205.473px" height="40.404px" viewBox="0 0 205.473 40.404" enable-background="new 0 0 205.473 40.404"
	 xml:space="preserve">
<g>
	<defs>
		<rect id="SVGID_1_" y="0" width="205.473" height="40.404"/>
	</defs>
	<clipPath id="SVGID_2_">
		<use xlink:href="#SVGID_1_"  overflow="visible"/>
	</clipPath>
	<path clip-path="url(#SVGID_2_)" fill="#FFFFFF" d="M101.752,16.22v-2.659h6.408c0.521,0,0.73,0.102,0.81,0.163
		c0.155,0.125,0.168,0.294,0.168,0.501v1.33c0,0.281-0.018,0.414-0.174,0.514c-0.091,0.043-0.306,0.151-0.859,0.151H101.752z
		 M109.35,18.939c0.335,0,1.477-0.038,2.174-0.505c0.83-0.572,0.926-1.465,0.926-2.086V13.46c0-0.601-0.086-1.469-0.821-2.044
		c-0.461-0.38-1.231-0.573-2.278-0.573H98.271v12.566h3.482v-4.47h2.389c0.164,0.146,4.952,4.47,4.952,4.47h5.158
		c0,0-4.594-3.646-5.632-4.47H109.35z"/>
</g>
<polygon fill="#FFFFFF" points="66.609,17.042 73.344,17.042 73.344,13.955 66.609,13.955 66.609,11.297 78.154,11.297 
	78.154,8.212 62.617,8.212 62.617,23.409 78.297,23.409 78.297,20.153 66.609,20.153 "/>
<g>
	<defs>
		<rect id="SVGID_3_" y="0" width="205.473" height="40.404"/>
	</defs>
	<clipPath id="SVGID_4_">
		<use xlink:href="#SVGID_3_"  overflow="visible"/>
	</clipPath>
	<path clip-path="url(#SVGID_4_)" fill="#FFFFFF" d="M92.076,20.549h-7.809v-9.705h-3.481v9.524c0,0.513,0,1.722,0.781,2.401
		c0.506,0.441,1.317,0.64,2.63,0.64h7.923c1.342,0,2.187-0.204,2.663-0.644c0.516-0.47,0.777-1.266,0.777-2.371v-9.551h-3.484
		V20.549z"/>
	<path clip-path="url(#SVGID_4_)" fill="#FFFFFF" d="M202.766,10.844c0,0-5.355,6.753-5.782,7.29
		c-0.428-0.537-5.785-7.29-5.785-7.29h-2.704v12.565h3.481v-7.212c0.85,1.069,4.579,5.77,4.579,5.77h0.857
		c0,0,3.729-4.701,4.58-5.77v7.212h3.48V10.844H202.766z"/>
</g>
<polygon fill="#FFFFFF" points="175.643,18.259 181.472,18.259 181.472,15.541 175.643,15.541 175.643,13.562 185.603,13.562 
	185.603,10.844 172.16,10.844 172.16,23.409 185.743,23.409 185.743,20.549 175.643,20.549 "/>
<g>
	<defs>
		<rect id="SVGID_5_" y="0" width="205.473" height="40.404"/>
	</defs>
	<clipPath id="SVGID_6_">
		<use xlink:href="#SVGID_5_"  overflow="visible"/>
	</clipPath>
	<path clip-path="url(#SVGID_6_)" fill="#FFFFFF" d="M127.837,20.549h-9.112v-6.848h9.112V20.549z M127.906,10.844h-9.365
		c-1.27,0-2.079,0.204-2.551,0.646c-0.746,0.68-0.746,1.942-0.746,2.481v6.312c0,0.473,0,1.735,0.681,2.417
		c0.476,0.477,1.37,0.709,2.73,0.709h9.251c0.98,0,2.08-0.056,2.733-0.741c0.679-0.715,0.679-1.865,0.679-2.244v-6.453
		c0-0.573,0-1.769-0.688-2.423C129.895,10.844,128.502,10.844,127.906,10.844"/>
</g>
<polygon fill="#FFFFFF" points="165.828,15.399 157.227,15.399 157.227,10.844 153.746,10.844 153.746,23.409 157.227,23.409 
	157.227,18.372 165.828,18.372 165.828,23.409 169.312,23.409 169.312,10.844 165.828,10.844 "/>
<g>
	<defs>
		<rect id="SVGID_7_" y="0" width="205.473" height="40.404"/>
	</defs>
	<clipPath id="SVGID_8_">
		<use xlink:href="#SVGID_7_"  overflow="visible"/>
	</clipPath>
	<path clip-path="url(#SVGID_8_)" fill="#FFFFFF" d="M146.818,8.212h-8.716c-0.827,0-2.213,0-3.035,0.789
		c-0.886,0.854-0.886,2.328-0.886,2.96v7.698c0,0.63,0,2.105,0.885,2.959c0.823,0.791,2.209,0.791,3.036,0.791h8.716
		c0.827,0,2.215,0,3.037-0.791c0.885-0.854,0.885-2.329,0.885-2.959v-1.967h-3.992v2.461h-8.574v-8.685h8.574v2.233h3.992v-1.74
		c0-0.632,0-2.106-0.885-2.958C149.033,8.212,147.646,8.212,146.818,8.212"/>
	<path clip-path="url(#SVGID_8_)" fill="#FFFFFF" d="M29.873,20.206h10.866L28.832,5.634l-0.001,0.002L24.229,0v0.016l0.006-0.008
		v14.753c-3.012,0-5.452,2.438-5.452,5.445H7.724L19.634,5.635l-0.001-0.006l1.743-2.13L18.518,0L0,20.206L18.4,40.277L2.005,20.206
		h5.716L19.761,34.94l0.002-0.01l4.467,5.474v-0.474V25.653c0.146,0,0.284-0.032,0.427-0.043c-2.713-0.309-4.824-2.609-4.824-5.404
		c0-2.834,2.159-5.159,4.919-5.427c2.765,0.268,4.927,2.593,4.927,5.427H29.873z M29.95,0l16.504,20.206h-5.715L28.697,34.938
		l0.001,0.004l-1.612,1.968l2.863,3.495l18.512-20.198L29.95,0z"/>
</g>
</svg>
