<?xml version="1.0" encoding="utf-8"?>
<!-- Generator: Adobe Illustrator 16.0.0, SVG Export Plug-In . SVG Version: 6.00 Build 0)  -->
<!DOCTYPE svg PUBLIC "-//W3C//DTD SVG 1.1//EN" "http://www.w3.org/Graphics/SVG/1.1/DTD/svg11.dtd">
<svg version="1.1" id="Слой_1" xmlns="http://www.w3.org/2000/svg" xmlns:xlink="http://www.w3.org/1999/xlink" x="0px" y="0px"
	 width="36px" height="34.362px" viewBox="0 0 36 34.362" enable-background="new 0 0 36 34.362" xml:space="preserve">
<g>
	<path fill="#04A4DA" d="M35.181,34.362c-0.03,0-0.06-0.002-0.09-0.005L20.365,32.72c-0.416-0.046-0.729-0.396-0.729-0.812V19.334
		c0-0.22,0.088-0.43,0.245-0.584s0.351-0.245,0.59-0.234c6.548,0.135,9.821,0.203,14.732,0.336C35.646,18.865,36,19.226,36,19.67
		v13.873c0,0.232-0.099,0.455-0.271,0.609C35.576,34.289,35.381,34.362,35.181,34.362z M21.272,31.173l13.091,1.455V20.465
		c-4.274-0.113-7.44-0.181-13.091-0.297V31.173z M16.363,31.908c-0.04,0-0.08-0.004-0.12-0.009l-3.219-0.473
		c-4.642-0.679-8.309-1.215-12.359-1.988c-0.386-0.073-0.664-0.412-0.664-0.804v-9.817c0-0.223,0.089-0.432,0.248-0.587
		c0.159-0.153,0.375-0.234,0.594-0.231c2.219,0.062,4.299,0.207,6.501,0.359c2.729,0.188,5.549,0.385,9.038,0.459
		c0.445,0.01,0.801,0.373,0.801,0.818v11.454c0,0.238-0.104,0.463-0.284,0.619C16.749,31.837,16.558,31.908,16.363,31.908z
		 M1.636,27.957c3.76,0.7,7.259,1.212,11.625,1.851l2.283,0.335v-9.708c-3.163-0.085-5.778-0.268-8.316-0.443
		c-1.902-0.132-3.713-0.257-5.593-0.328V27.957z M16.363,16.362H0.818C0.366,16.362,0,15.996,0,15.544V5.726
		C0,5.323,0.293,4.98,0.69,4.918l15.545-2.454c0.242-0.041,0.477,0.03,0.66,0.187c0.183,0.154,0.287,0.382,0.287,0.622v12.272
		C17.182,15.996,16.815,16.362,16.363,16.362z M1.636,14.726h13.909V4.229L1.636,6.426V14.726z M20.454,16.362
		c-0.214,0-0.42-0.219-0.572-0.369c-0.156-0.154-0.245-0.499-0.245-0.718V3.271c0-0.4,0.289-0.741,0.684-0.807L35.046,0.01
		c0.237-0.037,0.48,0.027,0.664,0.184C35.894,0.348,36,0.577,36,0.818v14.125c0,0.443-0.354,0.806-0.796,0.818
		c-4.688,0.127-7.885,0.327-13.862,0.449l-0.87,0.152C20.465,16.362,20.459,16.362,20.454,16.362z M21.272,3.965v10.761h0.035
		c5.629,0,8.79-0.467,13.056-0.581V1.783L21.272,3.965z"/>
</g>
</svg>
