<?xml version="1.0" encoding="utf-8"?>
<!-- Generator: Adobe Illustrator 16.0.0, SVG Export Plug-In . SVG Version: 6.00 Build 0)  -->
<!DOCTYPE svg PUBLIC "-//W3C//DTD SVG 1.1//EN" "http://www.w3.org/Graphics/SVG/1.1/DTD/svg11.dtd">
<svg version="1.1" id="Слой_1" xmlns="http://www.w3.org/2000/svg" xmlns:xlink="http://www.w3.org/1999/xlink" x="0px" y="0px"
	 width="36px" height="34.361px" viewBox="0 0 36 34.361" enable-background="new 0 0 36 34.361" xml:space="preserve">
<g>
	<path fill="#FFFFFF" d="M35.182,34.362c-0.031,0-0.061-0.002-0.091-0.005L20.365,32.72c-0.416-0.046-0.729-0.396-0.729-0.812
		V19.334c0-0.22,0.088-0.431,0.244-0.584c0.157-0.154,0.352-0.245,0.59-0.234c6.549,0.135,9.821,0.203,14.732,0.336
		C35.646,18.865,36,19.226,36,19.67v13.873c0,0.231-0.1,0.455-0.271,0.608C35.576,34.289,35.381,34.362,35.182,34.362z
		 M21.271,31.173l13.092,1.455V20.465c-4.274-0.113-7.44-0.181-13.092-0.297V31.173z M16.363,31.908c-0.04,0-0.08-0.005-0.12-0.01
		l-3.219-0.473c-4.642-0.679-8.309-1.215-12.359-1.988c-0.386-0.072-0.664-0.412-0.664-0.804v-9.817
		c0-0.223,0.089-0.432,0.248-0.587c0.159-0.152,0.375-0.233,0.594-0.23c2.219,0.062,4.299,0.207,6.501,0.358
		c2.729,0.188,5.549,0.386,9.038,0.459c0.445,0.011,0.801,0.373,0.801,0.818v11.454c0,0.238-0.104,0.463-0.284,0.619
		C16.749,31.837,16.558,31.908,16.363,31.908z M1.636,27.957c3.76,0.7,7.259,1.212,11.625,1.851l2.283,0.335v-9.708
		c-3.163-0.085-5.778-0.268-8.316-0.442c-1.902-0.133-3.713-0.258-5.593-0.328v8.293H1.636z M16.363,16.362H0.818
		C0.366,16.362,0,15.996,0,15.544V5.726C0,5.323,0.293,4.98,0.69,4.918l15.545-2.454c0.242-0.041,0.477,0.03,0.66,0.187
		c0.183,0.154,0.287,0.383,0.287,0.622v12.272C17.182,15.996,16.815,16.362,16.363,16.362z M1.636,14.726h13.909V4.229L1.636,6.426
		V14.726z M20.454,16.362c-0.214,0-0.42-0.219-0.572-0.368c-0.155-0.154-0.245-0.499-0.245-0.719V3.271
		c0-0.399,0.289-0.74,0.684-0.807L35.046,0.01c0.237-0.037,0.479,0.027,0.664,0.184C35.895,0.348,36,0.577,36,0.818v14.125
		c0,0.443-0.354,0.807-0.796,0.818c-4.688,0.127-7.886,0.327-13.862,0.449l-0.869,0.151C20.465,16.362,20.459,16.362,20.454,16.362z
		 M21.271,3.965v10.761h0.035c5.629,0,8.791-0.467,13.057-0.581V1.783L21.271,3.965z"/>
</g>
</svg>
