<?xml version="1.0" encoding="utf-8"?>
<!-- Generated by IcoMoon.io -->
<!DOCTYPE svg PUBLIC "-//W3C//DTD SVG 1.1//EN" "http://www.w3.org/Graphics/SVG/1.1/DTD/svg11.dtd">
<svg version="1.1" xmlns="http://www.w3.org/2000/svg" xmlns:xlink="http://www.w3.org/1999/xlink" width="32" height="32" viewBox="0 0 32 32">
<path fill="#444444" d="M16 32c-8.822 0-16-7.178-16-16s7.178-16 16-16c8.822 0 16 7.178 16 16s-7.178 16-16 16zM16 1.197c-8.162 0-14.803 6.64-14.803 14.803s6.64 14.803 14.803 14.803c8.162 0 14.803-6.64 14.803-14.803s-6.64-14.803-14.803-14.803z"></path>
<path fill="#444444" d="M8 21.774l-1.536-1.613 0.655-0.382c0.022-0.013 1.961-1.156 3.003-2.817-1.334-0.477-2.263-1.739-2.263-3.212 0-1.891 1.539-3.43 3.43-3.43 0.303 0 0.619 0.050 0.968 0.153 0.006-0.003 0.093 0.010 0.195 0.049l0.099 0.046c0.097 0.037 0.217 0.097 0.337 0.16l0.132 0.073c0.122 0.070 0.249 0.156 0.371 0.251 0.043 0.034 0.085 0.069 0.129 0.106 0.105 0.091 0.188 0.164 0.263 0.244 1.615 1.64 1.496 4.507 0.454 6.217-1.514 2.49-5.693 3.967-5.87 4.028l-0.366 0.126zM11.289 11.516c-1.231 0-2.232 1.002-2.232 2.232 0 1.145 0.864 2.093 2.011 2.207l0.809 0.081-0.317 0.749c-0.024 0.066-0.041 0.109-0.060 0.149-0.728 1.56-2.169 2.768-3.047 3.398 1.093-0.445 3.742-1.659 4.76-3.335 0.795-1.305 0.868-3.583-0.296-4.766-0.057-0.061-0.109-0.104-0.16-0.148l-0.101-0.085c-0.081-0.063-0.163-0.117-0.249-0.168l0.201-0.572-0.279 0.529c-0.077-0.041-0.153-0.082-0.237-0.113l-0.174-0.053c-0.24-0.073-0.44-0.105-0.628-0.105z"></path>
<path fill="#444444" d="M17.175 21.774l-1.536-1.613 0.655-0.382c0.022-0.013 1.961-1.156 3.003-2.817-1.334-0.477-2.263-1.739-2.263-3.212 0-1.891 1.539-3.43 3.43-3.43 0.303 0 0.619 0.050 0.968 0.153 0.007-0.003 0.090 0.008 0.194 0.049l0.099 0.046c0.098 0.037 0.217 0.097 0.338 0.16l0.131 0.073c0.121 0.070 0.249 0.156 0.371 0.251 0.043 0.034 0.085 0.069 0.128 0.106 0.105 0.091 0.188 0.164 0.263 0.244 1.614 1.64 1.496 4.507 0.454 6.217-1.514 2.49-5.693 3.967-5.87 4.028l-0.365 0.126zM20.463 11.516c-1.231 0-2.232 1.002-2.232 2.232 0 1.145 0.864 2.093 2.011 2.206l0.809 0.081-0.317 0.749c-0.024 0.066-0.041 0.109-0.060 0.149-0.727 1.56-2.168 2.768-3.046 3.398 1.092-0.445 3.742-1.659 4.76-3.335 0.795-1.305 0.869-3.583-0.295-4.766-0.057-0.061-0.109-0.104-0.16-0.148l-0.101-0.085c-0.081-0.063-0.162-0.117-0.249-0.168l0.201-0.572-0.28 0.529c-0.077-0.041-0.153-0.082-0.236-0.113l-0.175-0.053c-0.24-0.072-0.441-0.105-0.629-0.105z"></path>
</svg>
