<?xml version="1.0" encoding="utf-8"?>
<!-- Generator: Adobe Illustrator 16.0.0, SVG Export Plug-In . SVG Version: 6.00 Build 0)  -->
<!DOCTYPE svg PUBLIC "-//W3C//DTD SVG 1.1//EN" "http://www.w3.org/Graphics/SVG/1.1/DTD/svg11.dtd">
<svg version="1.1" id="Слой_1" xmlns="http://www.w3.org/2000/svg" xmlns:xlink="http://www.w3.org/1999/xlink" x="0px" y="0px"
	 width="48.164px" height="36.886px" viewBox="0 0 48.164 36.886" enable-background="new 0 0 48.164 36.886" xml:space="preserve">
<path fill="none" stroke="#02A5DB" stroke-width="2" stroke-miterlimit="10" d="M46.535,6.674c-1.473,0.65-3.056,1.093-4.717,1.293
	c1.695-1.017,2.997-2.624,3.61-4.54c-1.589,0.938-3.343,1.623-5.212,1.991c-1.496-1.597-3.631-2.592-5.991-2.592
	c-4.531,0-8.203,3.673-8.203,8.205c0,0.645,0.072,1.271,0.213,1.87c-6.82-0.341-12.867-3.61-16.916-8.574
	C8.614,5.539,8.208,6.948,8.208,8.451c0,2.848,1.449,5.359,3.65,6.831c-1.345-0.043-2.609-0.411-3.717-1.026
	c0,0.034,0,0.068,0,0.102c0,3.977,2.827,7.293,6.582,8.046c-0.688,0.189-1.414,0.288-2.162,0.288c-0.528,0-1.042-0.053-1.544-0.146
	c1.043,3.258,4.075,5.631,7.664,5.697c-2.808,2.202-6.346,3.514-10.19,3.514c-0.661,0-1.315-0.039-1.956-0.114
	c3.632,2.328,7.946,3.685,12.579,3.685c15.093,0,23.349-12.502,23.349-23.347c0-0.355-0.01-0.71-0.021-1.062
	C44.044,9.763,45.435,8.318,46.535,6.674"/>
</svg>
