<svg style="position: absolute; width: 0; height: 0;" width="0" height="0" version="1.1" xmlns="http://www.w3.org/2000/svg" xmlns:xlink="http://www.w3.org/1999/xlink">
<defs>
<symbol id="icon-arr-down" viewBox="0 0 1845 1024">
	<title>arr-down</title>
	<path class="path1 fill-color3" d="M1844.793 88.867l-88.784-88.867-846.516 846.433-820.544-822.453-88.95 88.867 908.83 911.153 17.093-16.844 0.332 0.415z"></path>
</symbol>
<symbol id="icon-share-tw2" viewBox="0 0 1024 1024">
	<title>share-tw2</title>
	<path class="path1 fill-color3" d="M512 1024c-284.152 0-512-230.39-512-512s230.4-512 512-512c281.6 0 512 230.4 512 512s-227.839 512-512 512zM512 35.838c-261.116 0-473.602 212.476-473.602 476.162s212.485 473.602 473.602 473.602 473.611-212.485 473.611-473.602c0-261.116-209.934-476.162-473.611-476.162z"></path>
	<path class="path2 fill-color3" d="M302.085 570.882c17.924 2.551 35.838 2.551 51.201-2.57-58.882-17.914-89.599-56.303-94.72-117.746 17.924 7.682 33.277 15.363 53.761 15.363-25.596-17.924-43.519-43.519-48.64-71.685-7.682-30.726-2.561-58.882 12.803-87.048 64.003 76.797 145.921 117.765 243.202 122.886 0-7.682-2.561-15.363-2.561-25.605 0-69.115 53.761-125.437 125.437-120.325 30.726 2.561 56.322 12.803 76.797 33.287 2.551 2.551 7.682 2.551 10.242 2.551 23.045-5.121 43.519-12.803 63.994-25.596 0 0 2.561 0 5.13-2.561-10.242 28.156-25.605 48.64-48.64 63.994-2.561 2.561-2.561 2.561-5.121 2.561 10.242-2.561 25.605-5.121 35.838-7.682s20.475-7.682 33.277-10.242c-7.672 7.672-12.803 17.924-17.924 23.035-10.242 12.803-23.035 23.035-35.838 33.277-2.561 2.561-5.121 5.121-5.121 7.682 0 104.953-35.838 194.562-115.204 266.237-48.631 46.080-107.523 71.685-174.078 79.367-69.115 10.242-135.679 0-199.673-30.726-10.242-5.112-20.484-10.242-30.726-17.924 63.994 5.13 120.316-10.242 174.078-48.631-51.192-5.112-87.030-30.708-107.514-81.899zM547.847 450.557c-102.402 0-189.441-35.838-263.677-107.523 0 2.561 0 2.561 0 2.561-5.121 33.277 2.561 63.994 25.596 87.039 12.803 12.803 28.166 20.484 40.959 30.726 10.242 7.682 20.484 12.803 30.726 20.484-33.277 0-64.003 2.551-97.281-2.561v2.561c10.242 30.717 30.717 51.201 61.443 61.434 15.363 5.121 33.277 7.682 48.64 10.242 5.121 0 12.793 2.542 17.924 2.542 5.121 0 12.793 2.57 17.924 2.57 0 0 0 0 0 2.551-33.277 7.682-64.003 23.026-97.281 28.156v0c0 0 0 2.551 2.561 2.551 15.363 20.493 35.838 33.287 61.443 35.838 20.484 2.57 40.959 2.57 61.443 2.57 2.561 0 5.121 0 7.682 0-46.080 38.398-89.599 74.236-148.482 84.469 2.561 2.551 5.121 2.551 5.121 2.551 48.64 15.363 97.281 17.924 148.482 10.242 81.918-12.793 151.033-53.761 199.683-120.316 46.080-63.994 69.106-135.679 63.994-212.476 0-5.121 0-7.672 5.112-7.672 5.13-2.561 10.242-7.682 15.363-10.242-15.363 2.561-30.717-2.551-46.080-7.672 12.793-10.242 23.035-20.484 33.287-30.726-7.682 0-12.812 0-17.924 2.551-5.13 2.561-7.682 0-12.812-5.121-23.026-25.605-53.761-38.398-89.599-33.277-51.201 7.672-92.16 58.882-84.469 110.074 5.102 12.84 7.663 25.642 10.223 35.875z"></path>
	<path class="path3 fill-color3" d="M419.84 750.090c-33.277 0-66.564-5.13-99.841-15.363-2.561 0-5.121-2.551-10.242-5.13l-28.166-20.475 33.277-5.112c43.519-7.682 79.367-30.726 112.644-56.331-10.242 0-23.035 0-33.277-2.551-48.64-5.13-71.685-43.519-71.685-46.080l-2.561-5.13 2.561-15.345 10.242-2.57c15.363-2.551 30.726-7.682 43.519-10.242-10.242-2.551-23.045-5.112-35.838-7.682-33.277-10.233-58.882-33.268-71.685-69.106v-23.045l17.924 2.551c15.363 2.561 30.717 2.561 46.080 5.121h-2.561c-12.803-7.672-23.035-15.354-33.277-25.596-25.596-25.605-35.838-58.882-30.717-99.851l2.561-5.121 7.682-20.475 15.363 12.803c66.564 63.994 143.361 99.841 235.53 102.393 0-5.121-2.561-10.242-2.561-20.475-5.121-28.156 2.561-56.322 23.035-81.918 17.924-25.605 46.080-40.959 74.236-43.519 40.968-5.121 74.246 7.682 102.411 35.838 5.112-2.561 12.793-2.561 20.475-2.561h38.398l-43.519 40.959c5.13 0 7.682 0 12.812 0l51.201-10.242-40.959 35.838c0 0-2.551 0-2.551 2.561-2.57 2.551-2.57 5.121-7.682 7.672 2.551 81.927-17.924 153.612-66.564 220.148-51.201 69.124-122.877 112.653-209.925 125.437-20.493 2.598-38.417 2.598-56.341 2.598zM368.639 716.804c33.277 5.13 66.564 5.13 102.402 0 79.357-12.793 143.361-51.21 189.441-115.204 46.089-61.434 66.564-130.549 61.434-204.794 0-2.551 0-5.121 0-7.672-5.112 0-10.242-2.561-12.793-5.13l-28.156-7.672 25.605-23.035c-2.561-2.561-5.13-2.561-5.13-5.13-20.475-23.035-46.080-33.277-76.797-28.156-20.484 2.561-40.959 15.363-53.761 33.287s-20.484 40.959-15.354 61.434c0 12.803 2.551 17.924 5.121 23.035 0 2.561 2.561 7.682 2.561 10.242l2.551 17.924h-17.924c-97.281 0-181.759-30.726-250.884-92.169 0 20.484 7.682 35.838 23.045 51.21 7.682 7.672 17.924 15.354 30.717 23.035l10.242 7.672c5.121 5.13 12.803 7.682 20.484 12.803l51.201 30.726h-51.201c-23.035 0-46.080 0-69.124 0 10.242 17.924 25.605 28.156 43.519 33.277 10.242 2.561 20.484 5.13 33.277 7.682 5.121 0 10.242 2.561 15.363 2.561s10.242 2.551 15.363 2.551h7.682c2.561 0 5.121 0 10.242 2.561h2.561c2.561 0 2.561 0 5.121 2.551l40.968 15.354-43.519 12.812c-12.793 2.551-23.035 7.663-35.838 10.242-12.793 5.112-25.596 10.242-40.959 12.793 7.682 7.682 20.484 15.363 38.398 15.363 12.803 2.551 28.166 2.551 40.959 2.551 5.121 0 12.803 0 20.484 0h46.080l-28.166 25.605c-38.408 28.166-74.255 56.322-115.214 71.694z"></path>
</symbol>
<symbol id="icon-share-this2" viewBox="0 0 1024 1024">
	<title>share-this2</title>
	<path class="path1 fill-color3" d="M512 1024c-284.152 0-512-230.39-512-512s230.4-512 512-512c281.6 0 512 230.4 512 512s-230.4 512-512 512zM512 35.838c-261.116 0-473.611 212.476-473.611 473.602s212.485 476.162 473.611 476.162 473.602-212.485 473.602-473.602c0-261.116-212.476-476.162-473.602-476.162z"></path>
	<path class="path2 fill-color3" d="M399.365 788.479v-555.519l373.76 261.116-373.76 294.403zM432.643 296.964v422.391l284.161-222.718-284.161-199.673z"></path>
</symbol>
<symbol id="icon-share-in2" viewBox="0 0 1024 1024">
	<title>share-in2</title>
	<path class="path1 fill-color3" d="M512 1024c-284.161 0-512-230.39-512-512s230.4-512 512-512c281.6 0 512 230.4 512 512s-230.4 512-512 512zM512 35.838c-261.116 0-473.602 212.476-473.602 473.602s212.476 476.162 473.602 476.162 473.602-212.485 473.602-473.602c0.009-261.116-212.485-476.162-473.602-476.162z"></path>
	<path class="path2 fill-color3" d="M783.368 762.874h-130.567v-171.517c0-48.631-5.112-69.115-35.838-69.115-33.268 0-43.51 17.924-43.51 66.564v174.078h-130.567v-350.716h125.437v20.475c20.475-15.354 46.080-28.156 79.367-28.156 120.316 0 135.679 89.599 135.679 168.957v189.431zM683.526 732.167h69.115v-161.284c0-99.841-28.166-138.24-104.953-138.24-43.519 0-69.124 23.035-81.918 43.519l-5.13 7.682h-25.605l-2.551-15.363v-28.156h-64.003v289.273h69.124v-143.37c0-23.026 0-97.262 74.246-97.262 66.555 0 66.555 66.564 66.555 99.841v143.361h5.121zM409.598 762.874h-130.558v-350.706h130.558v350.706zM309.766 732.167h69.124v-289.282h-69.124v289.282zM345.604 399.365c-40.968 0-74.236-33.287-74.236-74.246s33.277-74.236 74.236-74.236c40.959 0 74.236 33.277 74.236 74.236-2.561 40.959-35.838 74.246-74.236 74.246zM345.604 284.161c-23.045 0-43.519 17.924-43.519 43.519 0 23.035 17.924 43.519 43.519 43.519 23.035 0 43.519-17.924 43.519-43.519-2.561-25.596-20.484-43.519-43.519-43.519z"></path>
</symbol>
<symbol id="icon-share-fb2" viewBox="0 0 1024 1024">
	<title>share-fb2</title>
	<path class="path1 fill-color3" d="M512 1024c-284.152 0-512-230.39-512-512s230.409-512 512-512c281.6 0 512 230.4 512 512s-230.39 512-512 512zM512 35.838c-261.116 0-473.602 212.476-473.602 473.602s209.915 476.162 473.602 476.162 473.611-212.485 473.611-473.602c0-261.116-212.485-476.162-473.611-476.162z"></path>
	<path class="path2 fill-color3" d="M565.761 791.040h-138.24v-268.798h-56.313v-122.877h56.313c0-10.242 0-23.035 0-33.287 0-40.959 0-81.918 25.605-110.074 33.277-35.838 81.918-33.277 140.8-33.277 12.803 0 25.605 0 38.408 0h15.354v122.877h-15.354c-7.682 0-17.924 0-25.605 0-15.354 0-30.726 0-40.959 2.551-2.551 10.242-2.551 28.166-2.551 48.64l87.039 2.561-10.242 120.325h-71.685l-2.57 271.358zM455.687 760.323h76.797l2.551-271.358h74.246l5.121-58.882-81.918-2.561v-12.803c-2.561-15.354-5.121-69.115 7.672-87.039l2.561-5.121 5.121-2.561c17.924-5.121 38.408-5.121 58.882-5.121 2.561 0 5.121 0 10.242 0v-61.443c-7.682 0-15.363 0-25.605 0-53.761 0-94.72 0-117.756 23.045-17.924 17.924-17.924 51.201-17.924 89.59 0 15.363 0 30.726-2.561 48.64v12.803h-53.761v61.443h56.322v271.368h0.009z"></path>
</symbol>
<symbol id="icon-check" viewBox="0 0 1345 1024">
	<title>check</title>
	<path class="path1" d="M427.961 810.019l-320.971-320.971-106.99 106.99 427.961 427.961 917.010-917.053-106.99-106.947z"></path>
</symbol>
<symbol id="icon-checkv2" viewBox="0 0 1489 1024">
	<title>checkv2</title>
	<path class="path1" d="M1476.036 13.502c-18.066-17.97-47.279-17.97-65.345 0l-900.324 898.547-430.751-429.886c-18.21-18.162-47.76-18.162-65.922 0-18.258 18.162-18.258 47.664 0 65.826l461.742 460.925c0.288 0.288 0.769 0.384 1.009 0.673s0.336 0.673 0.529 0.961c18.066 18.066 47.279 18.066 65.345 0l933.67-931.796c18.018-18.066 18.018-47.279 0.048-65.249z"></path>
</symbol>
<symbol id="icon-nav-decor" viewBox="0 0 6322 1024">
	<title>nav-decor</title>
	<path class="path1" d="M4152.622 738.693l-839.292-738.693-923.263 730.035 1011.356 8.658h-3401.423v285.307h6321.836v-285.307z"></path>
</symbol>
<symbol id="icon-next-big" viewBox="0 0 357 1024">
	<title>next-big</title>
	<path class="path1 fill-color3" d="M356.726 504.917l0.031-0.031-0.086-0.047-312.81-504.839-13.305 8.234 307.582 496.409-338.137 510.709 13.055 8.649 343.702-519.052z"></path>
</symbol>
<symbol id="icon-prev-big" viewBox="0 0 357 1024">
	<title>prev-big</title>
	<path class="path1 fill-color3" d="M356.757 8.649l-13.055-8.649-343.624 519.161 312.81 504.839 13.29-8.234-307.558-496.401z"></path>
</symbol>
<symbol id="icon-arr-left" viewBox="0 0 568 1024">
	<title>arr-left</title>
	<path class="path1 fill-color3" d="M559.119 510.112l0.184-0.184-509.927-509.927-49.376 49.33 469.994 469.855-456.636 455.485 49.33 49.376 505.69-504.538z"></path>
</symbol>
<symbol id="icon-arr-down-blue" viewBox="0 0 1024 1024">
	<title>arr-down-blue</title>
	<path class="path1" d="M1024 277.134l-49.254-49.357-469.878 469.844-455.475-456.533-49.391 49.323 504.49 505.822 9.455-9.387 0.102 0.171z"></path>
</symbol>
<symbol id="icon-arr-down-incir-blue" viewBox="0 0 1024 1024">
	<title>arr-down-incir-blue</title>
	<path class="path1" d="M511.991 1024c-282.308 0-511.973-229.701-511.973-512.027 0-282.308 229.683-511.973 511.973-511.973 282.326 0 512.027 229.683 512.027 511.973-0.018 282.326-229.72 512.027-512.027 512.027zM511.991 38.314c-261.189 0-473.677 212.488-473.677 473.677 0 261.207 212.488 473.695 473.677 473.695 261.207 0 473.695-212.507 473.695-473.695s-212.507-473.677-473.695-473.677z"></path>
	<path class="path2" d="M785.829 404.697l-26.358-26.394-251.259 251.259-243.574-244.14-26.413 26.376 269.786 270.498 5.056-5.020 0.073 0.091z"></path>
</symbol>
<symbol id="icon-arr-left-blue" viewBox="0 0 1024 1024">
	<title>arr-left-blue</title>
	<path class="path1" d="M783.558 503.874l0.198-0.132-503.709-503.742-48.822 48.756 464.169 464.136-450.956 449.866 48.723 48.789 499.613-498.358z"></path>
</symbol>
<symbol id="icon-arr-left-incir-blue" viewBox="0 0 1024 1024">
	<title>arr-left-incir-blue</title>
	<path class="path1" d="M512.036 1024.018c-282.331 0-512.018-229.687-512.018-512.018 0-282.313 229.687-512 512.018-512 282.313 0 512 229.687 512 512 0 282.331-229.687 512.018-512 512.018zM512.036 38.296c-261.211 0-473.722 212.51-473.722 473.704 0 261.211 212.51 473.685 473.722 473.685 261.193 0 473.667-212.474 473.667-473.685 0-261.193-212.474-473.704-473.667-473.704z"></path>
	<path class="path2" d="M680.336 510.941l0.091-0.073-278.352-278.37-26.961 26.924 256.502 256.502-249.2 248.598 26.924 26.961 276.088-275.413z"></path>
</symbol>
<symbol id="icon-arr-nav-left" viewBox="0 0 1024 1024">
	<title>arr-nav-left</title>
	<path class="path1" d="M797.743 515.491l0.186-0.186-515.305-515.305-49.897 49.85 474.903 474.81-461.405 460.288 49.85 49.897 511.069-509.859z"></path>
</symbol>
<symbol id="icon-calendar" viewBox="0 0 1024 1024">
	<title>calendar</title>
	<path class="path1" d="M1021.659 276.139c0-58.124-62.074-117.662-116.102-117.662h-125.513v-80.847c0-15.214-4.389-28.867-23.162-28.867s-23.698 13.653-23.698 28.867v80.847h-441.929v-80.847c0-15.214 1.512-27.16-17.262-27.16-18.871 0-29.452 11.947-29.452 27.16v80.847h-145.603c-26.088 0-49.737 14.141-67.243 35.109l-31.695-0.146v158.379h1.122v528.433c0 58.075 41.058 105.374 95.037 105.374h809.35c53.882 0 117.906-47.299 117.906-105.374l-1.755-604.111zM976.994 880.152c0 29.16-40.277 58.319-67.243 58.319h-810.52c-26.965 0-48.957-29.306-48.957-58.319v-528.384h926.671v528.384zM293.254 694.467h-145.31v97.524h145.31v-97.524zM585.24 694.467h-145.262v97.524h145.262v-97.524zM878.787 694.467h-146.773v97.524h146.773v-97.524zM293.254 499.419h-145.31v97.524h145.31v-97.524zM585.24 499.419h-145.262v97.524h145.262v-97.524zM878.787 499.419h-146.773v97.524h146.773v-97.524z"></path>
</symbol>
<symbol id="icon-close-wh" viewBox="0 0 1024 1024">
	<title>close-wh</title>
	<path class="path1" d="M984.898 128.948l-36.523-60.985-432.811 392.382-455.301-393.026-35.385 62.085 438.348 378.425-438.955 398.033 36.523 61.023 455.566-413.089 432.545 373.343 35.385-62.161-415.554-358.703z"></path>
	<path class="path2" d="M56.396 996.504l-56.396-94.246 434.631-394.088-433.986-374.594 54.537-95.687 460.041 397.16 437.551-396.667 56.358 94.132-411.762 373.419 411.117 354.911-54.537 95.687-437.286-377.401-460.269 417.375zM48.545 909.464l16.649 27.838 450.901-408.841 427.767 369.247 16.308-28.596-419.992-362.496 420.447-381.269-16.649-27.8-428.108 388.096-450.56-388.892-16.232 28.482 442.785 382.217-443.316 402.015z"></path>
</symbol>
<symbol id="icon-email" viewBox="0 0 1024 1024">
	<title>email</title>
	<path class="path1" d="M512 1024c-282.319 0-512-229.681-512-512s229.681-512 512-512 512 229.681 512 512-229.681 512-512 512zM512 38.31c-261.197 0-473.69 212.493-473.69 473.69s212.493 473.69 473.69 473.69 473.69-212.493 473.69-473.69-212.518-473.69-473.69-473.69z"></path>
	<path class="path2" d="M608.72 525.638l105.608-121.136c4.546-4.904 4.929-15.835-7.075-25.208-13.408-10.522-23.803 3.805-28.324 8.735l-126.653 142.768c-12.591 13.613-20.687 25.923-39.485 25.872-16.907-0.051-29.626-11.646-42.192-25.285l-137.175-148.26c-14.226-12.387-22.373-14.149-34.683-4.495-9.705 7.534-4.469 22.424 0.128 27.353l113.857 130.331-126.883 113.295c-4.929 4.546-1.507 17.214 2.988 22.143 2.401 2.656 12.259 7.79 15.554 7.79 2.886 0 5.849-1.047 8.173-3.141l131.761-119.808 9.016 9.756c23.548 18.874 34.019 31.082 57.848 31.082 23.854 0 48.194-21.173 65.357-39.893l2.452-1.762 119.425 119.45c2.401 2.401 5.491 3.601 8.581 3.601 3.141 0 6.232-1.2 8.581-3.601 4.802-4.75 22.858-19.998 13.562-29.167l-120.421-120.421zM770.286 287.963h-516.597c-33.483 0-60.734 27.226-60.734 60.734v363.638c0 33.508 27.251 60.734 60.734 60.734h516.597c33.483 0 60.76-27.2 60.76-60.734v-363.638c0-33.483-27.277-60.734-60.76-60.734zM800.014 695.607c0 21.607-17.572 41.707-39.102 41.707l-498.617-1.711c-21.581 0-39.076-17.546-39.076-39.076v-333.68c0-21.581 17.52-39.127 39.076-39.127l498.617 1.737c21.556 0 39.102 17.52 39.102 39.102v331.049z"></path>
</symbol>
<symbol id="icon-loader" viewBox="0 0 1024 1024">
	<title>loader</title>
	<path class="path1 fill-color2" d="M191.671 83.907c69.595 0 126.050 56.43 126.050 126.050 0 69.608-56.454 126.037-126.050 126.037-69.62 0-126.050-56.43-126.050-126.037 0-69.62 56.43-126.050 126.050-126.050z"></path>
	<path class="path2 fill-color3" d="M216.052 761.905c-38.534 0-69.766 31.232-69.766 69.73 0 38.546 31.22 69.803 69.766 69.803 38.522 0 69.766-31.232 69.766-69.803-0.012-38.498-31.244-69.73-69.766-69.73zM533.004 883.81c-38.534 0-69.766 31.232-69.766 69.754 0 38.546 31.22 69.778 69.766 69.778 38.522 0 69.766-31.232 69.766-69.778 0-38.522-31.244-69.754-69.766-69.754zM69.766 469.333c-38.534 0-69.766 31.232-69.766 69.754 0 38.546 31.232 69.766 69.766 69.766s69.766-31.232 69.766-69.766c-0.012-38.534-31.244-69.754-69.766-69.754zM837.766 713.143c-38.522 0-69.766 31.232-69.766 69.754 0 38.546 31.22 69.778 69.766 69.778 38.522 0 69.766-31.232 69.766-69.778 0-38.522-31.244-69.754-69.766-69.754zM837.766 291.901c38.522 0 69.766-31.232 69.766-69.766 0-38.546-31.232-69.766-69.766-69.766-38.546 0-69.766 31.22-69.766 69.766 0 38.534 31.244 69.766 69.766 69.766zM959.671 457.143c-38.522 0-69.766 31.22-69.766 69.754 0 38.522 31.22 69.778 69.766 69.778 38.522 0 69.766-31.232 69.766-69.778s-31.244-69.754-69.766-69.754zM533.004 6.095c-38.534 0-69.766 31.22-69.766 69.766 0 38.522 31.22 69.766 69.766 69.766 38.522 0 69.766-31.232 69.766-69.766 0-38.558-31.244-69.766-69.766-69.766z"></path>
</symbol>
<symbol id="icon-lupe-darkblue" viewBox="0 0 1031 1024">
	<title>lupe-darkblue</title>
	<path class="path1" d="M986.222 840.009l-207.331-195.184c101.885-162.749 82.36-379.683-59.274-521.254-164.593-164.657-431.516-164.657-596.173 0-164.657 164.72-164.657 431.58 0 596.236 139.917 139.917 353.544 160.459 515.53 62.581l205.55 193.594c17.68 28.747 49.162 48.080 85.476 48.080 55.522 0 100.613-45.091 100.613-100.613 0.191-34.788-17.553-65.316-44.392-83.441zM591.848 590.703c-94.953 94.889-248.925 94.889-343.877 0-94.889-95.016-94.889-248.988 0-343.941 94.953-94.953 248.925-94.953 343.877 0 94.889 94.953 94.889 248.861 0 343.941z"></path>
</symbol>
<symbol id="icon-pdf" viewBox="0 0 1024 1024">
	<title>pdf</title>
	<path class="path1" d="M884.404 27.731c0-11.485-9.327-27.731-20.812-27.731h-487.009c-5.59 0-10.987 9.188-14.89 13.229l-215.677 221.322c-3.819 3.902-7.638 9.105-7.638 14.53v753.609c0 11.458 11.043 20.812 22.528 20.812h702.685c7.722 0 14.474-12.122 18.1-23.635 2.795-3.764 4.151-8.801 4.151-14.474l-1.439-957.661zM359.618 80.342v168.6l-164.061 0.803 164.061-169.403zM830.685 968.095l-636.817 1.688v-666.209h196.082c11.513 0 25.13-14.474 25.13-25.96v-223.841h415.606v914.321zM408.991 731.025l104.088 83.276c3.847 3.044 8.441 4.566 13.035 4.566s9.188-1.522 13.008-4.566l104.144-83.276c8.939-7.196 10.434-20.231 3.21-29.309-7.196-8.967-20.259-10.434-29.309-3.21l-63.35 50.674v-367.533c0-11.485-17.657-22.777-29.17-22.777-11.485 0-26.32 11.292-26.32 22.777v367.533l-63.322-50.674c-8.995-7.223-22.113-5.757-29.309 3.21-7.14 9.050-5.701 22.113 3.293 29.309z"></path>
</symbol>
<symbol id="icon-plus-incir" viewBox="0 0 1024 1024">
	<title>plus-incir</title>
	<path class="path1" d="M840.309 464.582h-265.283v-266.093h-126.188v266.093h-269.472v129.736h269.472v267.107h126.188v-267.107h265.283z"></path>
	<path class="path2" d="M511.916 1024c-282.277 0-511.916-229.673-511.916-511.983-0.034-136.763 53.212-265.35 149.906-362.044 96.694-96.727 225.247-149.973 362.010-149.973 282.31 0 512.017 229.673 512.017 512.017 0 282.31-229.707 511.983-512.017 511.983zM511.916 50.678c-123.215 0-239.065 47.975-326.197 135.108-87.099 87.132-135.074 202.982-135.040 326.231 0 254.37 206.935 461.305 461.238 461.305 254.37 0 461.339-206.935 461.339-461.305 0-254.404-206.969-461.339-461.339-461.339z"></path>
</symbol>
<symbol id="icon-print" viewBox="0 0 1024 1024">
	<title>print</title>
	<path class="path1" d="M512.013 1024c-282.326 0-512.013-229.661-512.013-511.987s229.687-512.013 512.013-512.013 512.013 229.687 512.013 512.013-229.687 511.987-512.013 511.987zM512.013 38.311c-261.178 0-473.702 212.498-473.702 473.702s212.498 473.676 473.702 473.676 473.702-212.472 473.702-473.676-212.498-473.702-473.702-473.702z"></path>
	<path class="path2" d="M308.888 375.626h406.479c16.040 0 29.040-13 29.040-29.040s-13-29.040-29.040-29.040h-406.479c-16.040 0-29.040 13-29.040 29.040s13 29.040 29.040 29.040zM715.367 433.68h-406.479c-16.040 0-29.040 13-29.040 29.040s13 29.065 29.040 29.065h406.479c16.040 0 29.040-13.026 29.040-29.065s-13-29.040-29.040-29.040zM715.367 549.813h-406.479c-16.040 0-29.040 13-29.040 29.040s13 29.091 29.040 29.091h406.479c16.040 0 29.040-13.051 29.040-29.091s-13-29.040-29.040-29.040zM530.198 665.946h-221.309c-16.040 0-29.040 13-29.040 29.014 0 16.091 13 29.065 29.040 29.065h221.309c16.040 0 29.040-12.975 29.040-29.065 0-16.014-13-29.014-29.040-29.014z"></path>
</symbol>
<symbol id="icon-quote" viewBox="0 0 1024 1024">
	<title>quote</title>
	<path class="path1" d="M512 1024c-282.319 0-512-229.681-512-512s229.681-512 512-512c282.319 0 512 229.681 512 512s-229.681 512-512 512zM512 38.31c-261.197 0-473.69 212.493-473.69 473.69s212.493 473.69 473.69 473.69c261.197 0 473.69-212.493 473.69-473.69s-212.493-473.69-473.69-473.69z"></path>
	<path class="path2" d="M256.013 696.756l-49.164-51.616 20.968-12.234c0.69-0.409 62.752-37.007 96.107-90.156-42.677-15.273-72.406-55.652-72.406-102.798 0-60.504 49.241-109.745 109.745-109.745 9.705 0 19.819 1.609 30.98 4.904 0.204-0.102 2.963 0.306 6.232 1.583l3.167 1.481c3.116 1.175 6.947 3.116 10.778 5.134l4.214 2.324c3.908 2.248 7.968 4.98 11.876 8.020 1.379 1.073 2.733 2.222 4.112 3.397 3.371 2.912 6.002 5.236 8.428 7.815 51.667 52.485 47.887 144.224 14.532 198.956-48.449 79.685-182.177 126.934-187.847 128.9l-11.723 4.035zM361.263 368.516c-39.383 0-71.435 32.053-71.435 71.435 0 36.624 27.66 66.966 64.361 70.618l25.898 2.58-10.139 23.957c-0.766 2.12-1.303 3.499-1.915 4.776-23.292 49.931-69.418 88.573-97.512 108.749 34.964-14.226 119.731-53.098 152.32-106.706 25.438-41.758 27.787-114.649-9.475-152.499-1.813-1.941-3.473-3.32-5.134-4.75l-3.244-2.733c-2.58-2.018-5.21-3.754-7.968-5.363l6.436-18.312-8.939 16.933c-2.477-1.303-4.904-2.631-7.585-3.627l-5.568-1.686c-7.688-2.324-14.073-3.371-20.1-3.371z"></path>
	<path class="path3" d="M549.595 696.756l-49.164-51.616 20.968-12.234c0.69-0.409 62.752-37.007 96.107-90.156-42.703-15.273-72.406-55.652-72.406-102.798 0-60.504 49.241-109.745 109.745-109.745 9.705 0 19.819 1.609 30.98 4.904 0.23-0.102 2.886 0.255 6.206 1.583l3.167 1.481c3.141 1.175 6.947 3.116 10.803 5.134l4.189 2.324c3.882 2.248 7.968 4.98 11.876 8.020 1.379 1.073 2.733 2.222 4.086 3.397 3.371 2.912 6.002 5.236 8.428 7.815 51.642 52.485 47.862 144.224 14.532 198.956-48.449 79.685-182.177 126.934-187.847 128.9l-11.672 4.035zM654.82 368.516c-39.383 0-71.435 32.053-71.435 71.435 0 36.624 27.66 66.966 64.361 70.593l25.898 2.58-10.139 23.957c-0.766 2.12-1.303 3.499-1.915 4.776-23.267 49.931-69.392 88.573-97.486 108.749 34.939-14.226 119.731-53.098 152.32-106.706 25.438-41.758 27.813-114.649-9.45-152.499-1.813-1.941-3.499-3.32-5.134-4.75l-3.244-2.733c-2.605-2.018-5.185-3.754-7.968-5.363l6.436-18.312-8.965 16.933c-2.452-1.303-4.904-2.631-7.56-3.627l-5.593-1.686c-7.688-2.299-14.098-3.346-20.126-3.346z"></path>
</symbol>
<symbol id="icon-rel-art" viewBox="0 0 1024 1024">
	<title>rel-art</title>
	<path class="path1" d="M1022.976 503.775l-251.111-396.42c-3.766-14.567-16.946-24.774-32.041-24.774h-706.791c-18.267 0-33.032 14.765-33.032 32.999v792.774c0 18.267 14.765 33.032 33.032 33.032h706.791c15.096 0 28.21-10.207 32.041-24.84l251.144-396.387c1.288-5.351 1.288-11-0.033-16.384zM714.257 875.355h-648.192v-726.71h648.192l242.556 363.355-242.556 363.355zM660.645 346.806h-462.452c-18.267 0-33.032 14.798-33.032 33.065 0 18.234 14.765 33.032 33.032 33.032h462.452c18.3 0 33.032-14.798 33.032-33.032 0-18.267-14.765-33.065-33.032-33.065zM660.645 478.935h-462.452c-18.267 0-33.032 14.798-33.032 33.065 0 18.234 14.765 33.032 33.032 33.032h462.452c18.3 0 33.032-14.765 33.032-33.032s-14.765-33.065-33.032-33.065zM660.645 611.097h-462.452c-18.267 0-33.032 14.765-33.032 33.032s14.765 33.032 33.032 33.032h462.452c18.3 0 33.032-14.765 33.032-33.032s-14.765-33.032-33.032-33.032z"></path>
</symbol>
<symbol id="icon-share-fb" viewBox="0 0 1024 1024">
	<title>share-fb</title>
	<path class="path1" d="M511.982 1023.963c-282.303 0-511.982-229.679-511.982-512 0-282.303 229.679-511.982 511.982-511.982 282.321 0 512 229.679 512 511.982-0.018 282.321-229.697 512-512 512zM511.982 38.295c-261.184 0-473.687 212.503-473.687 473.687 0 261.202 212.503 473.668 473.687 473.668 261.202 0 473.668-212.485 473.668-473.668s-212.485-473.687-473.668-473.687z"></path>
	<path class="path2" d="M569.424 796.311h-146.171v-269.014h-57.059v-130.017h56.165c0.402-9.765 0.529-19.44 0.657-28.913 0.566-42.731 1.113-83.088 27.781-111.727 29.99-32.199 76.28-34.9 121.109-34.9 7.338 0 14.858 0.073 22.543 0.164 12.668 0.146 25.755 0.31 39.189 0.055l19.476-0.329v129.688l-18.509 0.639c-8.269 0.274-17.012 0.146-25.737 0-12.467-0.201-25.992-0.748-38.386 1.241-1.825 8.743-2.61 25.153-2.008 42.42l86.392 2.117-11.591 127.48h-71.863l-1.99 271.095zM461.548 757.979h69.836l2.026-271.041h74.911l4.709-51.875-80.204-1.971-1.497-17.048c-1.825-20.462-4.49-70.165 9.51-90.134l3.614-5.147 5.951-2.008c13.799-4.636 30.026-5.275 44.081-5.275 4.947 0 10.003 0.091 15.041 0.164 1.771 0.037 3.505 0.055 5.257 0.091v-53.354c-7.046-0.018-13.982-0.091-20.772-0.164-7.557-0.073-14.931-0.164-22.141-0.164-45.56 0-75.404 3.705-93.073 22.689-16.61 17.815-17.030 49.466-17.505 86.136-0.219 15.771-0.42 32.089-1.88 49.156l-1.497 17.541h-53.427v53.39h57.059v269.014z"></path>
</symbol>
<symbol id="icon-share-in" viewBox="0 0 1024 1024">
	<title>share-in</title>
	<path class="path1" d="M511.982 1023.963c-282.303 0-511.982-229.679-511.982-512 0-282.303 229.679-511.982 511.982-511.982 282.321 0 512 229.679 512 511.982-0.018 282.321-229.697 512-512 512zM511.982 38.295c-261.184 0-473.687 212.503-473.687 473.687 0 261.202 212.503 473.668 473.687 473.668 261.202 0 473.668-212.485 473.668-473.668s-212.485-473.687-473.668-473.687z"></path>
	<path class="path2" d="M414.182 767.617h-137.848v-358.217h137.848v358.217zM314.647 729.303h61.221v-281.591h-61.221v281.591zM786.563 767.598h-137.72v-174.755c0-51.547-6.991-65.675-32.509-65.675-26.248 0-40.467 10.039-40.467 63.010v177.42h-137.61v-358.236h133.613v15.497c19.239-13.562 44.83-23.382 76.262-23.382 122.697 0 138.432 91.667 138.432 171.525v194.597zM687.157 729.285h61.075v-156.283c0-98.348-26.193-133.211-100.1-133.211-40.814 0-67.044 22.305-77.101 41.416l-5.385 10.24h-30.738l-1.369-19.148v-24.587h-56.986v281.609h60.965v-139.089c0-25.062 0-101.323 78.78-101.323 70.84 0 70.84 70.238 70.84 103.988v136.387zM345.294 403.996c-42.365 0-76.827-34.48-76.827-76.846 0-42.329 34.462-76.791 76.827-76.791 20.517 0 39.792 7.995 54.303 22.506 14.493 14.511 22.47 33.787 22.47 54.285-0.018 42.365-34.444 76.846-76.773 76.846zM345.294 288.673c-21.247 0-38.532 17.267-38.532 38.478 0 21.265 17.286 38.551 38.532 38.551 21.21 0 38.459-17.286 38.459-38.551 0-10.258-3.997-19.914-11.262-27.197s-16.939-11.28-27.197-11.28z"></path>
</symbol>
<symbol id="icon-share-this" viewBox="0 0 1024 1024">
	<title>share-this</title>
	<path class="path1" d="M593.455 880.888c-19.89-92.067 38.726-183.017 130.731-202.938 92.067-19.921 183.079 38.788 202.969 130.824 19.952 91.974-38.85 182.955-130.855 202.876s-182.955-38.788-202.845-130.762zM859.726 823.296c-11.823-54.862-66.064-89.864-120.894-78.010s-89.833 66.126-77.948 120.956c11.885 54.831 66.126 89.771 120.894 77.948 54.831-11.854 89.802-66.064 77.948-120.894z"></path>
	<path class="path2" d="M96.97 539.648c-19.89-92.036 38.726-183.017 130.731-202.907 92.067-19.89 183.079 38.788 202.969 130.824 19.952 92.005-38.85 182.986-130.855 202.876s-182.955-38.85-202.845-130.793zM363.21 482.087c-11.823-54.862-66.064-89.864-120.894-78.010s-89.833 66.126-77.948 120.987c11.885 54.8 66.126 89.771 120.894 77.917 54.862-11.854 89.833-66.064 77.948-120.894z"></path>
	<path class="path3" d="M345.522 593.827c-1.086-7.851 0.838-16.167 6.051-22.962 10.302-13.653 29.758-16.322 43.442-5.958l271.888 180.689c13.684 10.333 16.353 29.789 5.989 43.442s-29.82 16.322-43.504 5.958l-271.888-180.72c-6.827-5.151-10.892-12.567-11.978-20.449z"></path>
	<path class="path4" d="M796.331 3.879c92.005 19.89 150.714 110.902 130.855 202.876-19.89 92.036-110.902 150.683-202.969 130.824-92.005-19.859-150.621-110.871-130.731-202.907 19.859-92.005 110.84-150.714 202.845-130.793zM781.777 71.277c-54.862-11.854-109.103 23.118-120.894 77.917-11.885 54.862 23.087 109.134 77.948 120.956 54.924 11.885 109.165-23.118 120.894-78.010 11.854-54.737-23.118-108.978-77.948-120.863z"></path>
	<path class="path5" d="M345.522 421.733c-1.086 7.851 0.838 16.167 6.051 22.962 10.302 13.622 29.758 16.322 43.442 5.958l271.919-180.689c13.684-10.364 16.353-29.789 5.989-43.473-10.364-13.622-29.82-16.322-43.504-5.927l-271.919 180.658c-6.827 5.182-10.892 12.567-11.978 20.511z"></path>
</symbol>
<symbol id="icon-share-tw" viewBox="0 0 1024 1024">
	<title>share-tw</title>
	<path class="path1" d="M512.026 1024c-282.321 0-512.009-229.687-512.009-512.009s229.687-512.009 512.009-512.009c282.321 0.017 511.992 229.704 511.992 512.009 0 282.338-229.671 512.009-511.992 512.009zM512.026 38.29c-261.196 0-473.702 212.506-473.702 473.702 0 261.213 212.506 473.719 473.702 473.719s473.685-212.506 473.685-473.719c0-261.179-212.489-473.685-473.685-473.702z"></path>
	<path class="path2" d="M424.637 759.473c-62.831 0-123.962-17.896-176.765-51.767l-75.050-48.147 88.527 10.452c36.607 4.368 72.637-1.462 104.757-16.060-31.594-14.888-56.559-42.369-67.674-77.089l-10.486-32.749 0.85 0.17c-18.355-22.399-29.231-50.968-29.231-81.559v-34.857l10.18 5.183c-6.067-15.058-9.296-31.356-9.296-48.113 0-22.722 6.016-45.071 17.42-64.649l14.922-25.628 18.745 22.977c46.141 56.576 112.014 93.32 183.546 103.109 0-0.612-0.017-1.241-0.017-1.852 0-70.903 57.681-128.601 128.567-128.601 31.441 0 61.879 11.625 85.23 32.223 18.168-4.606 35.588-11.795 51.886-21.431l46.481-27.532-16.485 51.461c-1.564 4.895-3.416 9.687-5.54 14.327l56.967-25.119-39.326 58.735c-13.919 20.785-30.761 39.072-50.118 54.469 0.017 1.343 0.017 2.668 0.017 3.994-0.017 161.283-122.738 328.055-328.106 328.055zM340.801 705.905c26.988 8.26 55.217 12.508 83.836 12.508 179.654 0 287.029-145.919 287.029-286.978 0-4.402-0.136-8.82-0.306-13.171l-0.442-11.013 8.939-6.458c0.595-0.425 1.19-0.867 1.784-1.309l-90.957 10.945 75.254-45.19-10.605 2.090-7.784-8.311c-16.451-17.573-39.751-27.634-63.935-27.634-48.249 0-87.49 39.275-87.49 87.524 0 6.764 0.765 13.494 2.26 20.020l6.101 26.478-27.141-1.36c-80.828-4.045-157.272-38.171-214.409-94.849-0.952 5.166-1.411 10.435-1.411 15.72 0 29.333 14.548 56.576 38.953 72.892l59.618 39.853-71.668-2.26c-7.461-0.238-14.905-1.122-22.246-2.668 10.367 28.28 34.432 49.778 64.666 55.829l84.329 16.842-82.851 23.062c-6.424 1.784-13.035 3.059-19.782 3.807 15.941 19.901 40.193 32.341 66.79 32.868l57.63 1.105-45.343 35.588c-27.226 21.329-57.987 36.199-90.821 44.068z"></path>
</symbol>
<symbol id="icon-share-youtube" viewBox="0 0 1024 1024">
	<title>share-youtube</title>
	<path class="path1" d="M512.018 1023.963c-282.313 0-512-229.687-512-512s229.687-511.982 512-511.982c282.331 0 512.018 229.687 512.018 511.982s-229.687 512-512.018 512zM512.018 38.296c-261.193 0-473.704 212.492-473.704 473.685s212.51 473.667 473.704 473.667c261.211 0 473.685-212.492 473.685-473.667s-212.474-473.685-473.685-473.685z"></path>
	<path class="path2" d="M396.8 794.021l0.31-563.603 379.697 265.903-380.007 297.701zM435.371 303.98l-0.237 411.33 277.348-217.256-277.11-194.074z"></path>
</symbol>
<symbol id="icon-tel-darkblue" viewBox="0 0 1024 1024">
	<title>tel-darkblue</title>
	<path class="path1" d="M750.888 614.4c-68.244 68.312-68.244 136.488-136.488 136.488s-136.556-68.176-204.8-136.488c-68.244-68.244-136.556-136.556-136.556-204.868 0-68.244 68.312-68.244 136.556-136.488 68.244-68.176-136.556-273.044-204.8-273.044s-204.8 204.868-204.8 204.868c0 136.419 140.313 413.221 273.044 546.019 132.867 132.799 409.6 273.112 546.156 273.112 0 0 204.732-136.488 204.732-204.8 0-68.176-204.732-273.044-273.044-204.8z"></path>
</symbol>
<symbol id="icon-youtube" viewBox="0 0 1024 1024">
	<title>youtube</title>
	<path class="path1" d="M805.647 888.471h-602.353c-112.098 0-203.294-91.196-203.294-203.294v-361.412c0-112.098 91.196-203.294 203.294-203.294h602.353c112.098 0 203.294 91.196 203.294 203.294v361.412c0 112.098-91.196 203.294-203.294 203.294zM203.294 165.647c-87.191 0-158.118 70.927-158.118 158.118v361.412c0 87.191 70.927 158.118 158.118 158.118h602.353c87.191 0 158.118-70.927 158.118-158.118v-361.412c0-87.191-70.927-158.118-158.118-158.118h-602.353zM414.027 708.247v-407.522l254.675 203.746-254.675 203.776zM459.204 394.722v219.528l137.216-109.779-137.216-109.749z"></path>
</symbol>
</defs>
</svg>
